<?xml version="1.0" encoding="UTF-8" ?>
<svg xmlns="http://www.w3.org/2000/svg"
     version="1.1">
  <path d="m 85.57275,15.371 c 0,-3.843 3.119,-7.0520004 6.984,-7.0520004 3.865,0 6.984,3.2090004 6.984,7.0520004 0,3.864999 -3.074,7.051999 -6.984,7.051999 -3.91,0 -6.984,-3.187 -6.984,-7.051999 m 15.356,-0.024 c 0,-4.627 -3.796,-8.2950004 -8.38,-8.2950004 -4.584,0 -8.38,3.6680004 -8.38,8.2950004 0,4.604999 3.796,8.336999 8.38,8.336999 4.584,0 8.38,-3.732 8.38,-8.336999" />
  <path d="m 111.33075,20.629999 4.909,-13.3009992 1.583,0 -6.525,17.0370002 -6.329,-17.0370002 1.55,0 4.812,13.3009992 z" />
  <path d="m 124.1875,16.902999 c 0,1.194 0.03,2.559 0.777,3.582 0.704,0.981001 1.84,1.751001 3.535,1.756 1.85,0.006 2.779,-0.753 3.524,-1.649 0.854,-1.024 0.864,-2.431 0.864,-3.689 l 0,-9.5739992 1.348,0 0,10.0639992 c 0,1.749 -0.127,3.135 -1.407,4.456 -1.108,1.195 -2.708,1.835 -4.329,1.835 -1.514,0 -3.069,-0.576 -4.157,-1.642 -1.408,-1.344 -1.578,-2.815 -1.578,-4.649 l 0,-10.0639992 1.423,0 0,9.5739992" />
  <path d="m 142.60423,6.8508236 6.361,14.1339994 0.131,0.292 6.335,-14.4299994 0.516,0.002 2.075,16.8229994 -1.542,0 -1.407,-12.573999 -0.279,0.609999 -5.582,12.417 -0.315,0 -5.857,-13.026999 -0.107,0.781 -1.45,11.799999 -1.482,0.006 2.19,-16.8379993 0.413,0.004 z" />
  <path d="m 57.607476,5.1896598 c 0,0 -0.027,7.0140002 0,10.6619992 0.054,7.173999 3.404,7.068999 5.228,7.068999 l 0,0.758 -11.841,0 0,-0.758 c 3.222,0.041 5.627,-1.91 5.648,-6.651 0.03,-6.5779975 0,-11.7819982 0,-11.7819982 0,0 -2.056,-1.885 -2.712,-2.273 -0.659,-0.388 -1.465001,-0.819 -2.811,-0.819 l 0,-0.796 13.366,0 13.636,12.6799982 0,-5.2629982 c 0,-6.459 -3.568,-6.717 -5.382001,-6.717 l 0,-0.7 11.722,0 0,0.744 c -1.824,0 -5.443,0.393 -5.443,7.091 l 0,15.7299992 -0.897,0 -20.514,-18.9749992" />
  <path style="fill:#00a983"
        d="m 79.424693,1.2518984 -3.454297,0 c 0.664945,0.3083656 2.37552,2.0641408 2.40264,2.9741707 0.03014,-0.7814606 0.128569,-2.4026398 1.051657,-2.9741707" />
  <path style="fill:#00a983"
        d="m 54.033738,1.275608 6.780438,0 17.485106,16.256936 0,5.796066 c 0,0 -21.567446,-19.958788 -22.085644,-20.3851794 C 55.69544,2.5160192 54.277536,1.275608 54.033738,1.275608" />
  <path d="m 16.924,16.416 c -1.896,-3.370999 -4.382,-7.834 -4.382,-7.834 0,0 -4.1,7.501999 -4.276,7.832 l 8.658,0.002 z m -8.951,0.867999 c -0.885,2.757001 0.316,5.656 4.049,5.656 l 0.7,0.015 0,0.729 -12.721,0 -0.001,-0.654 c 2.961,0 4.587,-2.440999 6.629,-5.746 L 16.31,0 17.267,0 c 0,0 9.749,17.582999 10.586,19.078999 0.837,1.494 1.74,3.951 5.748,3.951 l 0,0.654 -18.187,0 0,-0.728999 1.215,-0.015 c 3.265,0.027 3.071,-1.468 2.373,-2.875 -0.201,-0.404 -0.849,-1.388001 -1.633,-2.782001 l -9.396,0.001" />
  <path style="fill:#00a983"
        d="m 2.7757732,22.980575 3.9637752,0 C 6.5494392,22.758781 5.744644,21.733248 5.9178546,20.011704 5.4446941,20.754186 3.4390427,22.758781 2.7757732,22.980575" />
  <path style="fill:#00a983"
        d="M 19.035498,18.30574 13.055485,7.6389856 15.609878,2.950237 l 11.16718,20.004058 -7.242137,0 c 0.991812,-0.540624 1.252075,-1.884141 -0.499423,-4.648555" />
  <path d="m 39.095,8.8989999 c 2.079,0 3.82,0.294 5.38,1.7630001 1.401,1.311 2.124,3.096 2.124,4.995 0,1.943999 -0.746,3.819999 -2.215,5.108 -1.559,1.379 -3.277,1.649999 -5.289,1.649999 l -1.378,0 0,-13.5159991 1.378,0 z M 36.2,23.683999 l 2.954,0 c 2.41,0 4.371,-0.32 6.269,-1.941 1.834,-1.577 2.666,-3.731 2.666,-6.118999 0,-2.346001 -0.853,-4.414 -2.623,-5.9920005 C 43.547,7.9259999 41.627,7.6059999 39.111,7.5419999 l -2.911,0 0,16.1419991" />
  <path style="fill:#00a983"
        d="m 57.433548,22.941769 -3.318737,0 c 0.910749,-0.423274 2.440632,-1.855229 2.472188,-2.928107 0.03372,0.845463 0.130573,2.504833 0.846549,2.928107" />
</svg>