<?xml version="1.0" encoding="UTF-8" ?>
<svg xmlns="http://www.w3.org/2000/svg"
     width="100"
     height="100"
     version="1.1">
  <path d="m 38,31 0,13 c 0,0 4,-3 9,-3 1,0 11,0 11,9 l 0,13 c 2,0 4,0 4,3 0,3 -2,3 -4,3 l -6,0 c -2,0 -5,0 -5,-3 0,-3 3,-3 5,-3 l 0,-11 c 0,-5 -4,-5 -7,-5 -3,0 -7,2 -7,5 l 0,11 c 2,0 5,0 5,3 0,3 -3,3 -5,3 l -6,0 c -2,0 -5,0 -5,-3 0,-3 3,-3 5,-3 l 0,-26 c -2,0 -5,0 -5,-3 0,-3 3,-3 5,-3 z" />
  <path d="m 84,59 c 7,-8 7,11 3,11 -6,0 0,-8 -12,-8 -7,0 -10,3 -10,10 0,7 3,8 10,8 10,0 12,-6 15,-4 5,5 -7,10 -14,10 -13,0 -17,-4 -17,-14 0,-10 6,-16 16,-16 5,0 7,1 9,3 z" />
  <path d="m 100,60 -13,0 0,-3 c 2,-2 10,-8 10,-10 0,-2 -2,-3 -4,-3 -4,0 -3,3 -5,3 -3,0 -1,-6 5,-6 4,0 7,2 7,6 0,3 -6,8 -9,10 l 7,0 c 0,-1 2,-1 2,0" />
  <circle cx="85"
          cy="32"
          r="3" />
  <circle cx="76"
          cy="22"
          r="3.6" />
  <circle cx="64"
          cy="15"
          r="4" />
  <circle cx="48"
          cy="13"
          r="4.7" />
  <circle cx="30"
          cy="16"
          r="5.5" />
  <circle cx="14"
          cy="30"
          r="6.5" />
  <circle cx="8.5"
          cy="52"
          r="7.8" />
  <circle cx="13"
          cy="75"
          r="7.8" />
  <circle cx="31"
          cy="91"
          r="9.2" />
</svg>