<?xml version="1.0" encoding="UTF-8" ?>
<svg xmlns="http://www.w3.org/2000/svg"
     version="1.1">
  <g style="fill:#c8c8c8" >
    <circle cx="2.5"
            cy="2.5"
            r="2.5" />
    <circle cx="10"
            cy="2.5"
            r="2.5" />
    <circle cx="17"
            cy="2.5"
            r="2.5" />
    <circle cx="24.5"
            cy="2.5"
            r="2.5" />
    <circle cx="31.5"
            cy="2.5"
            r="2.5" />
    <circle cx="39"
            cy="2.5"
            r="2.5" />
    <circle cx="46.5"
            cy="2.5"
            r="2.5" />
    <circle cx="53.5"
            cy="2.5"
            r="2.5" />
    <circle cx="61"
            cy="2.5"
            r="2.5" />
    <circle cx="68"
            cy="2.5"
            r="2.5" />
    <circle cx="75.5"
            cy="2.5"
            r="2.5" />
    <circle cx="83"
            cy="2.5"
            r="2.5" />
    <circle cx="90"
            cy="2.5"
            r="2.5" />
    <circle cx="97.5"
            cy="2.5"
            r="2.5" />
    <circle cx="2.5"
            cy="97.5"
            r="2.5" />
    <circle cx="10"
            cy="97.5"
            r="2.5" />
    <circle cx="17"
            cy="97.5"
            r="2.5" />
    <circle cx="24.5"
            cy="97.5"
            r="2.5" />
    <circle cx="31.5"
            cy="97.5"
            r="2.5" />
    <circle cx="39"
            cy="97.5"
            r="2.5" />
    <circle cx="46.5"
            cy="97.5"
            r="2.5" />
    <circle cx="53.5"
            cy="97.5"
            r="2.5" />
    <circle cx="61"
            cy="97.5"
            r="2.5" />
    <circle cx="68"
            cy="97.5"
            r="2.5" />
    <circle cx="75.5"
            cy="97.5"
            r="2.5" />
    <circle cx="83"
            cy="97.5"
            r="2.5" />
    <circle cx="90"
            cy="97.5"
            r="2.5" />
    <circle cx="97.5"
            cy="97.5"
            r="2.5" />
    <circle cx="2.5"
            cy="10"
            r="2.5" />
    <circle cx="2.5"
            cy="17.5"
            r="2.5" />
    <circle cx="2.5"
            cy="25"
            r="2.5" />
    <circle cx="2.5"
            cy="31.5"
            r="2.5" />
    <circle cx="2.5"
            cy="39"
            r="2.5" />
    <circle cx="2.5"
            cy="46.5"
            r="2.5" />
    <circle cx="2.5"
            cy="53.5"
            r="2.5" />
    <circle cx="2.5"
            cy="61"
            r="2.5" />
    <circle cx="2.5"
            cy="68.5"
            r="2.5" />
    <circle cx="2.5"
            cy="75.5"
            r="2.5" />
    <circle cx="2.5"
            cy="83"
            r="2.5" />
    <circle cx="2.5"
            cy="90"
            r="2.5" />
    <circle cx="97.5"
            cy="10"
            r="2.5" />
    <circle cx="97.5"
            cy="17.5"
            r="2.5" />
    <circle cx="97.5"
            cy="25"
            r="2.5" />
    <circle cx="97.5"
            cy="31.5"
            r="2.5" />
    <circle cx="97.5"
            cy="39"
            r="2.5" />
    <circle cx="97.5"
            cy="46.5"
            r="2.5" />
    <circle cx="97.5"
            cy="53.5"
            r="2.5" />
    <circle cx="97.5"
            cy="61"
            r="2.5" />
    <circle cx="97.5"
            cy="68.5"
            r="2.5" />
    <circle cx="97.5"
            cy="75.5"
            r="2.5" />
    <circle cx="97.5"
            cy="83"
            r="2.5" />
    <circle cx="97.5"
            cy="90"
            r="2.5" />
  </g>
  <path d="m 17,29.25 c -2.5,0 -4.5,1.5 -4.5,4.25 0,2.75 2,4.5 4.5,4.5 2.5,0 4.75,-2 4.75,-4.5 0,-2.5 -2,-4.25 -4.75,-4.25 z m 0,2.25 c 1,0 2,1 2,2 0,1.25 -1,2.25 -2,2.25 -1,0 -2,-1 -2,-2.25 0,-1 1.075,-2 2,-2 z" />
  <path d="m 28.25,29.25 c -2.5,0 -2.75,1.25 -2.75,1.25 l 0,-1 -2.5,0 0,12 2.5,0 0,-5 c 0,0 1,1.5 2.75,1.5 2.25,0 4,-2.25 4,-4.5 0,-2.25 -1.5,-4.25 -4,-4.25 z m -0.75,2.25 c 1.25,0 2.25,1 2.25,2 0,1.25 -1.25,2.25 -2.25,2.25 -1.25,0 -2,-1.25 -2,-2.25 0,-1 0.75,-2 2,-2 z" />
  <path d="m 37.5,29.25 c -2.25,0 -4.25,2 -4.25,4.25 0,2 1.75,4.5 4.25,4.5 2,0 3,-0.75 3.75,-1.75 -0.75,-0.5 -0.75,-0.5 -1.75,-1.25 -2.5,2.5 -3.75,-0.25 -3.5,-0.75 l 5.75,0 c 0,-2.875 -0.75,-5 -4.25,-5 z m 0,1.75 c 1,0 1.75,0.75 1.75,1.5 l -3.5,0 c 0,-0.75 0.75,-1.5 1.75,-1.5 z" />
  <path d="m 43.25,29.25 2.5,0 0,1.25 c 0.5,-1 5.25,-2.75 5.5,1.25 l 0,6.25 -2.5,0 0,-5.5 c -0.25,-1.25 -2,-1.25 -2.75,0 l 0,5.5 -2.75,0 z" />
  <path d="m 19.25,45 c -0.5,0.5 -0.75,0.75 -1.5,1.25 -0.5,-0.25 -2.25,-1 -2.5,0.25 0,1.25 4.25,0 4.25,3.25 0,1.5 -1,2.75 -3.25,2.75 -1.25,0 -2.25,0 -3.75,-1 0.75,-0.75 1,-1.25 1.5,-1.75 0.5,0.75 3,1.25 3,0.25 0,-1.25 -4.25,-0.25 -4.25,-3.25 0,-1.5 1,-3 3.5,-3 1,0 2.25,0.25 3,1.25 z" />
  <path d="m 19.75,44 2.75,0 2.25,5.5 1.75,-5.5 2.75,0 c 0,0 -3,7.75 -4.5,11 -1,2.25 -4.75,1.25 -4.75,1.25 0,0 0.25,-1.25 0.5,-2.25 2.25,1.25 3,-1.5 3,-1.5 z" />
  <path d="m 48.75,44 c -2.25,0 -4.25,2 -4.25,4.25 0,2 1.75,4.5 4.25,4.5 2,0 3,-0.75 3.75,-1.75 C 51.75,50.5 51.75,50.5 50.75,49.75 48.25,52.25 47,49.5 47.25,49 L 53,49 c 0,-2.875 -0.75,-5 -4.25,-5 z m 0,1.75 c 1,0 1.75,0.75 1.75,1.5 l -3.5,0 c 0,-0.75 0.75,-1.5 1.75,-1.5 z"/>
  <path d="m 75.75,45 c -0.5,0.5 -0.75,0.75 -1.5,1.25 -0.5,-0.25 -2.25,-1 -2.5,0.25 0,1.25 4.25,0 4.25,3.25 0,1.5 -1,2.75 -3.25,2.75 -1.25,0 -2.25,0 -3.75,-1 0.75,-0.75 1,-1.25 1.5,-1.75 0.5,0.75 3,1.25 3,0.25 0,-1.25 -4.25,-0.25 -4.25,-3.25 0,-1.5 1,-3 3.5,-3 1,0 2.25,0.25 3,1.25 z"/>
  <path d="m 36,45 c -0.5,0.5 -0.75,0.75 -1.5,1.25 -0.5,-0.25 -2.25,-1 -2.5,0.25 0,1.25 4.25,0 4.25,3.25 0,1.5 -1,2.75 -3.25,2.75 -1.25,0 -2.25,0 -3.75,-1 0.75,-0.75 1,-1.25 1.5,-1.75 0.5,0.75 3,1.25 3,0.25 0,-1.25 -4.25,-0.25 -4.25,-3.25 0,-1.5 1,-3 3.5,-3 1,0 2.25,0.25 3,1.25 z" />
  <path d="m 38.5,41.5 2.5,0 0,2.5 2.25,0 0,2 -2.25,0 c 0,0 0,2.25 0,3.75 C 42,51 43.25,50 43.25,50 l 0,2.25 c 0,0 -3.25,1.25 -4.75,-1.5 0,-1.5 0,-4.75 0,-4.75 l -1.75,0 0,-2 1.75,0 z" />
  <path d="M 54.25 43.75 L 54.25 52.5 L 57 52.5 L 57 47 C 57.75 45.75 59.5 45.75 59.75 47 L 59.75 52.5 L 62.25 52.5 L 62.25 47 C 63.25 46 64.75 46 65 47.125 L 65 52.625 L 67.5 52.625 L 67.5 46.375 C 67.25 42.375 62.5 44.125 62 45.125 C 61 42.625 57.25 44.125 56.75 45 L 56.75 43.75 L 54.25 43.75 z "/>
</svg>